<?xml version="1.0" encoding="iso-8859-1"?>
<!-- Generator: Adobe Illustrator 25.2.3, SVG Export Plug-In . SVG Version: 6.00 Build 0)  -->
<svg version="1.1" baseProfile="basic" id="Layer_8"
	 xmlns="http://www.w3.org/2000/svg" xmlns:xlink="http://www.w3.org/1999/xlink" x="0px" y="0px" viewBox="0 0 50 50"
	 xml:space="preserve">
<path style="fill:none;stroke:#000000;stroke-width:2;stroke-miterlimit:10;" d="M23.857,20.335c0.357-0.52,0.748-0.588,1.067-0.588
	c0.316,0,0.845,0.068,1.203,0.588c4.656,6.343,14.313,23.074,15.206,23.985c1.322,1.349,3.137,0.509,4.191-1.022
	c1.04-1.508,1.327-2.566,1.327-3.693c0-0.769-15.038-28.513-16.555-30.823C28.839,6.561,28.365,6,25.874,6h-1.865
	c-2.486,0-2.846,0.561-4.302,2.78C18.188,11.095,3.15,38.839,3.15,39.607c0,1.13,0.287,2.186,1.327,3.693
	c1.053,1.53,2.868,2.373,4.191,1.022C9.56,43.412,19.203,26.68,23.857,20.34L23.857,20.335z"/>
</svg>