<svg xmlns="http://www.w3.org/2000/svg" width="89" height="32" viewBox="0 0 89 32" fill="none"><path d="M3.62172 30.7488C3.01999 30.5956 2.46093 30.3077 1.98672 29.9068C1.53668 29.5091 1.19558 29.0032 0.995716 28.4368C0.759123 27.7371 0.647422 27.0012 0.665716 26.2628C0.665716 26.1042 0.672716 25.9232 0.686716 25.7198C0.700716 25.5165 0.725716 25.2998 0.761716 25.0698C0.79705 24.8425 0.832716 24.6115 0.868716 24.3768C0.904716 24.1422 0.943716 23.9325 0.985716 23.7478L2.84272 14.4728H0.537716C0.460445 14.4791 0.382847 14.4657 0.312071 14.4341C0.241295 14.4025 0.179616 14.3535 0.132716 14.2918C0.0272185 14.0766 -0.0167336 13.8364 0.00571622 13.5978C0.011289 13.2793 0.0363358 12.9613 0.0807162 12.6458C0.129495 12.2567 0.210779 11.8724 0.323716 11.4968C0.422377 11.1524 0.573481 10.8252 0.771716 10.5268C0.838111 10.4082 0.933864 10.3087 1.04979 10.2378C1.16571 10.1669 1.29792 10.1269 1.43372 10.1218H3.71772L4.57072 5.87982C4.59971 5.73547 4.66906 5.60232 4.77072 5.49582C4.91125 5.36399 5.08081 5.26704 5.26572 5.21282C5.54249 5.12308 5.82873 5.06569 6.11872 5.04182C6.46738 5.00649 6.90505 4.98882 7.43172 4.98882C7.859 4.98511 8.2862 5.0028 8.71172 5.04182C8.98312 5.06115 9.25042 5.11871 9.50572 5.21282C9.65855 5.26529 9.78994 5.36646 9.87972 5.50082C9.94403 5.61794 9.9629 5.75466 9.93272 5.88482L9.07872 10.1228H13.1977C13.2937 10.1117 13.3909 10.1281 13.4779 10.1703C13.5649 10.2125 13.638 10.2786 13.6887 10.3608C13.7858 10.5745 13.8297 10.8085 13.8167 11.0428C13.8135 11.2245 13.7992 11.4059 13.7737 11.5858C13.745 11.8065 13.706 12.0445 13.6567 12.2998C13.6066 12.5598 13.5398 12.8164 13.4567 13.0678C13.3788 13.3056 13.2825 13.537 13.1687 13.7598C13.0751 13.9481 12.953 14.1208 12.8067 14.2718C12.751 14.333 12.6835 14.3823 12.6082 14.4167C12.5329 14.4511 12.4515 14.4698 12.3687 14.4718H8.20072L6.40572 23.4038C6.36305 23.6152 6.32405 23.8675 6.28872 24.1608C6.25713 24.3976 6.23943 24.636 6.23572 24.8748C6.21584 25.0992 6.24146 25.3253 6.31105 25.5396C6.38064 25.7539 6.49277 25.9519 6.64072 26.1218C6.99923 26.4171 7.45889 26.5606 7.92172 26.5218C8.21449 26.5259 8.50694 26.5008 8.79472 26.4468C9.00848 26.4047 9.219 26.3476 9.42472 26.2758C9.60272 26.2092 9.75572 26.1522 9.88372 26.1048C9.99871 26.0577 10.1215 26.0322 10.2457 26.0298C10.3031 26.0305 10.3594 26.0454 10.4097 26.0731C10.4599 26.1009 10.5025 26.1406 10.5337 26.1888C10.6249 26.3472 10.6657 26.5296 10.6507 26.7118C10.6471 27.0193 10.6183 27.326 10.5647 27.6288C10.5093 27.9635 10.4345 28.2948 10.3407 28.6208C10.2561 28.918 10.1529 29.2096 10.0317 29.4938C9.94776 29.7096 9.82508 29.9082 9.66972 30.0798C9.50056 30.234 9.30514 30.3566 9.09272 30.4418C8.79984 30.5684 8.49632 30.6688 8.18572 30.7418C7.81618 30.8299 7.4419 30.8966 7.06472 30.9418C6.66964 30.9913 6.27188 31.0164 5.87372 31.0168C5.11453 31.0282 4.3572 30.9384 3.62172 30.7498V30.7488ZM26.2217 30.6738C25.9461 30.6593 25.6735 30.6093 25.4107 30.5248C25.2462 30.4724 25.0987 30.3767 24.9837 30.2478C24.8865 30.1223 24.8182 29.9768 24.7837 29.8218L20.2837 19.8008L18.2707 29.8648C18.2287 30.0061 18.1517 30.1344 18.0467 30.2378C17.906 30.3637 17.7379 30.4551 17.5557 30.5048C17.2736 30.5874 16.9837 30.6406 16.6907 30.6638C16.3347 30.6992 15.9014 30.7168 15.3907 30.7168C14.9598 30.721 14.5289 30.7033 14.0997 30.6638C13.8354 30.6423 13.5743 30.5924 13.3207 30.5148C13.171 30.4764 13.0392 30.3874 12.9477 30.2628C12.8827 30.1499 12.8637 30.0163 12.8947 29.8898L18.5237 1.83282C18.5524 1.69002 18.6187 1.55747 18.7157 1.44882C18.8519 1.31274 19.0206 1.21363 19.2057 1.16082C19.487 1.07022 19.7769 1.00857 20.0707 0.976819C20.5077 0.929515 20.9472 0.908144 21.3867 0.912819C21.818 0.907825 22.2491 0.929198 22.6777 0.976819C22.9441 1.0032 23.206 1.06404 23.4567 1.15782C23.6074 1.20841 23.7355 1.31035 23.8187 1.44582C23.8763 1.56521 23.8915 1.70065 23.8617 1.82982L20.5317 18.5218L27.6607 10.9068C27.7956 10.7432 27.9497 10.5965 28.1197 10.4698C28.3105 10.3365 28.524 10.2389 28.7497 10.1818C29.0537 10.1031 29.3644 10.0532 29.6777 10.0328C30.0404 10.0042 30.4924 9.98982 31.0337 9.98982C31.5624 9.98982 32.0034 10.0042 32.3567 10.0328C32.6383 10.0487 32.9173 10.0953 33.1887 10.1718C33.348 10.2103 33.4928 10.294 33.6057 10.4128C33.6827 10.5097 33.724 10.6301 33.7227 10.7538C33.7023 11.0419 33.6026 11.3188 33.4347 11.5538C33.1533 11.9693 32.8347 12.3582 32.4827 12.7158L25.7597 19.0468L30.1347 28.2138C30.2605 28.5046 30.3608 28.8057 30.4347 29.1138C30.4838 29.3104 30.5126 29.5114 30.5207 29.7138C30.5236 29.8739 30.4749 30.0306 30.3817 30.1608C30.2584 30.3091 30.0954 30.419 29.9117 30.4778C29.6211 30.5778 29.3184 30.6386 29.0117 30.6588C28.6344 30.6942 28.1614 30.7118 27.5927 30.7118C27.024 30.7118 26.5657 30.6998 26.2177 30.6758L26.2217 30.6738Z" fill="#0755E9"></path><path d="M53.2037 30.6528C52.2685 30.4113 51.3976 29.9676 50.6527 29.3528C49.9585 28.7537 49.4297 27.9866 49.1167 27.1248C48.7534 26.0938 48.5796 25.0056 48.6037 23.9128C48.61 22.8876 48.6993 21.8646 48.8707 20.8538C49.0518 19.7548 49.3416 18.6765 49.7357 17.6348C50.1369 16.5698 50.6519 15.5512 51.2717 14.5968C51.8923 13.6366 52.6577 12.7781 53.5407 12.0518C54.4661 11.2994 55.5095 10.7051 56.6287 10.2928C57.9085 9.83337 59.2611 9.60975 60.6207 9.6328C61.7511 9.60937 62.8783 9.76393 63.9607 10.0908C64.7981 10.3437 65.579 10.7556 66.2607 11.3038C66.8297 11.7722 67.2854 12.3633 67.5937 13.0328C67.8808 13.6581 68.0302 14.3377 68.0317 15.0258C68.0462 15.991 67.8069 16.9432 67.3377 17.7868C66.8139 18.6653 66.071 19.3927 65.1817 19.8978C64.0284 20.5543 62.7729 21.012 61.4677 21.2518C59.6988 21.589 57.9003 21.7461 56.0997 21.7208H54.1327C54.0753 22.0481 54.0327 22.3715 54.0047 22.6908C53.9767 23.0101 53.9623 23.3048 53.9617 23.5748C53.9269 24.0466 53.9887 24.5206 54.1435 24.9676C54.2982 25.4147 54.5426 25.8255 54.8617 26.1748C55.6727 26.8288 56.7061 27.1418 57.7437 27.0478C58.5913 27.0564 59.438 26.9894 60.2737 26.8478C60.9356 26.7327 61.5911 26.5835 62.2377 26.4008C62.7997 26.2375 63.2663 26.0885 63.6377 25.9538C63.8961 25.8458 64.1697 25.7783 64.4487 25.7538C64.5166 25.747 64.5852 25.7571 64.6483 25.7831C64.7114 25.809 64.7672 25.8502 64.8107 25.9028C64.8926 26.0448 64.9299 26.2083 64.9177 26.3718C64.915 26.6499 64.8936 26.9275 64.8537 27.2028C64.8108 27.515 64.75 27.8245 64.6717 28.1298C64.5965 28.4265 64.4961 28.7162 64.3717 28.9958C64.2766 29.228 64.1351 29.4383 63.9557 29.6138C63.6793 29.8445 63.3603 30.0184 63.0167 30.1258C62.4801 30.3198 61.9308 30.4765 61.3727 30.5948C60.6604 30.7486 59.9408 30.8661 59.2167 30.9468C58.4087 31.0399 57.596 31.0863 56.7827 31.0858C55.5764 31.1049 54.3732 30.9606 53.2057 30.6568L53.2037 30.6528ZM58.2187 13.8318C57.6668 14.0817 57.1658 14.4312 56.7407 14.8628C56.2991 15.3164 55.9283 15.8339 55.6407 16.3978C55.3301 16.9994 55.0834 17.6318 54.9047 18.2848H56.6977C57.6559 18.2996 58.6134 18.2246 59.5577 18.0608C60.2037 17.9524 60.8297 17.7475 61.4147 17.4528C61.83 17.2461 62.1835 16.9336 62.4397 16.5468C62.6486 16.2111 62.7585 15.8232 62.7567 15.4278C62.7605 15.1558 62.7018 14.8866 62.5851 14.641C62.4684 14.3953 62.2969 14.1797 62.0837 14.0108C61.5197 13.598 60.8279 13.3979 60.1307 13.4458C59.4743 13.4357 58.8235 13.5673 58.2227 13.8318H58.2187ZM69.7837 30.6638C69.5184 30.6434 69.2567 30.59 69.0047 30.5048C68.854 30.4594 68.7225 30.3656 68.6307 30.2378C68.5657 30.1249 68.5467 29.9913 68.5777 29.8648L74.1917 1.8298C74.2203 1.68699 74.2866 1.55442 74.3837 1.4458C74.5202 1.30958 74.6892 1.21045 74.8747 1.1578C75.1564 1.06815 75.4466 1.0075 75.7407 0.976797C76.176 0.929688 76.6138 0.908317 77.0517 0.912797C77.4823 0.907888 77.9127 0.929261 78.3407 0.976797C78.6074 1.00309 78.8696 1.06393 79.1207 1.1578C79.2714 1.20832 79.3996 1.31027 79.4827 1.4458C79.5403 1.56517 79.5555 1.70064 79.5257 1.8298L73.9357 29.8648C73.908 30.0064 73.8383 30.1364 73.7357 30.2378C73.5981 30.3622 73.4339 30.4536 73.2557 30.5048C72.9778 30.5881 72.6919 30.6414 72.4027 30.6638C72.0467 30.6991 71.6133 30.7168 71.1027 30.7168C70.6624 30.7215 70.2222 30.7038 69.7837 30.6638ZM42.4177 30.6748C42.1497 30.6589 41.884 30.616 41.6247 30.5468C41.476 30.5136 41.3437 30.4294 41.2507 30.3088C41.1844 30.2043 41.1373 30.0888 41.1117 29.9678L38.8117 23.2548L33.9897 29.9918C33.9091 30.1146 33.8122 30.226 33.7017 30.3228C33.5436 30.4381 33.3607 30.5148 33.1677 30.5468C32.8439 30.6135 32.5157 30.6562 32.1857 30.6748C31.7803 30.7028 31.236 30.7171 30.5527 30.7178C29.9407 30.7178 29.4497 30.7001 29.0797 30.6648C28.7997 30.652 28.5247 30.5869 28.2687 30.4728C28.1961 30.4467 28.1342 30.3971 28.0929 30.3319C28.0516 30.2667 28.0332 30.1896 28.0407 30.1128C28.0893 29.9015 28.1801 29.7021 28.3077 29.5268L35.5477 20.0618L32.3657 11.2738C32.2868 11.0741 32.2573 10.8583 32.2797 10.6448C32.2981 10.5562 32.3378 10.4734 32.3955 10.4037C32.4532 10.334 32.5271 10.2794 32.6107 10.2448C32.896 10.1237 33.201 10.056 33.5107 10.0448C33.916 10.0095 34.4533 9.9918 35.1227 9.9918C35.7047 9.9918 36.1633 10.0025 36.4987 10.0238C36.7573 10.0365 37.0144 10.0699 37.2677 10.1238C37.4085 10.1447 37.537 10.2157 37.6297 10.3238C37.7005 10.4319 37.7541 10.5503 37.7887 10.6748L40.0097 17.0278L44.5987 10.6748C44.6801 10.5649 44.7733 10.4643 44.8767 10.3748C45.0162 10.2707 45.1765 10.1981 45.3467 10.1618C45.6199 10.0956 45.8982 10.0528 46.1787 10.0338C46.52 10.0051 46.9823 9.9908 47.5657 9.9908C48.2197 9.9908 48.7427 10.0051 49.1347 10.0338C49.4305 10.0422 49.7229 10.1 49.9997 10.2048C50.1843 10.2901 50.266 10.4071 50.2447 10.5558C50.1878 10.7788 50.0823 10.9864 49.9357 11.1638L43.3147 20.0128L46.7297 29.4778C46.7986 29.6701 46.8134 29.8776 46.7727 30.0778C46.7394 30.1679 46.6861 30.2493 46.6168 30.3158C46.5475 30.3823 46.4641 30.4322 46.3727 30.4618C46.0682 30.5793 45.7467 30.6469 45.4207 30.6618C45.008 30.6971 44.4747 30.7148 43.8207 30.7148C43.226 30.7148 42.7593 30.7005 42.4207 30.6718L42.4177 30.6748Z" fill="#0755E9"></path><path d="M86.9129 5.50068H86.5229L86.0579 4.72468C86.0201 4.65928 85.978 4.59648 85.9319 4.53668C85.8962 4.49007 85.8549 4.44808 85.8089 4.41168C85.7682 4.37998 85.7221 4.35592 85.6729 4.34068C85.6199 4.32529 85.565 4.31787 85.5099 4.31868H85.2469V5.50068H84.9219V2.72468H85.7479C85.8615 2.72346 85.9746 2.73861 86.0839 2.76968C86.1813 2.79754 86.2722 2.84482 86.3509 2.90868C86.4272 2.97134 86.4881 3.05072 86.5289 3.14068C86.5735 3.24276 86.5953 3.35331 86.5929 3.46468C86.5939 3.55556 86.579 3.64592 86.5489 3.73168C86.5208 3.81051 86.4788 3.88367 86.4249 3.94768C86.3696 4.01117 86.304 4.06491 86.2309 4.10668C86.1509 4.15168 86.0651 4.18533 85.9759 4.20668V4.21468C86.0189 4.23341 86.0595 4.25725 86.0969 4.28568C86.1334 4.31348 86.1669 4.34498 86.1969 4.37968C86.23 4.41874 86.2608 4.45982 86.2889 4.50268C86.3189 4.54868 86.3522 4.60168 86.3889 4.66168L86.9129 5.50068ZM85.2469 3.01768V4.02468H85.6889C85.7657 4.02573 85.8422 4.01355 85.9149 3.98868C85.981 3.96599 86.0418 3.93028 86.0939 3.88368C86.1451 3.83664 86.1854 3.77895 86.2119 3.71468C86.2413 3.64371 86.2559 3.56749 86.2549 3.49068C86.2585 3.42559 86.2474 3.36052 86.2225 3.30029C86.1976 3.24005 86.1594 3.18619 86.1109 3.14268C85.9916 3.05198 85.8434 3.00757 85.6939 3.01768H85.2469Z" fill="#0755E9"></path><path d="M85.7655 1.70469C85.2846 1.70469 84.8144 1.84734 84.4146 2.11459C84.0148 2.38185 83.7032 2.7617 83.5193 3.20608C83.3354 3.65046 83.2874 4.13941 83.3814 4.61106C83.4755 5.08271 83.7073 5.51586 84.0476 5.85573C84.3879 6.19559 84.8213 6.42688 85.2931 6.52034C85.7648 6.6138 86.2537 6.56523 86.6979 6.38078C87.142 6.19632 87.5215 5.88427 87.7883 5.4841C88.055 5.08392 88.1971 4.61362 88.1965 4.13269C88.1949 3.48871 87.9382 2.87161 87.4825 2.41653C87.0269 1.96144 86.4095 1.70548 85.7655 1.70469ZM85.7655 1.30469C86.3248 1.30469 86.8716 1.47055 87.3367 1.78129C87.8017 2.09204 88.1642 2.53371 88.3782 3.05046C88.5923 3.56721 88.6483 4.13582 88.5392 4.6844C88.43 5.23298 88.1607 5.73688 87.7652 6.13239C87.3697 6.52789 86.8658 6.79723 86.3172 6.90635C85.7686 7.01547 85.2 6.95946 84.6833 6.74542C84.1665 6.53137 83.7248 6.1689 83.4141 5.70384C83.1034 5.23878 82.9375 4.69201 82.9375 4.13269C82.9375 3.38266 83.2354 2.66334 83.7658 2.13299C84.2962 1.60264 85.0155 1.30469 85.7655 1.30469V1.30469Z" fill="#0755E9"></path></svg>