<?xml version="1.0" encoding="iso-8859-1"?>
<!-- Generator: Adobe Illustrator 27.0.0, SVG Export Plug-In . SVG Version: 6.00 Build 0)  -->
<svg version="1.1" baseProfile="basic" id="&#x421;&#x43B;&#x43E;&#x439;_1"
	 xmlns="http://www.w3.org/2000/svg" xmlns:xlink="http://www.w3.org/1999/xlink" x="0px" y="0px" viewBox="0 0 24 24"
	 xml:space="preserve">
<path d="M8.56,4.94l-6.02,10.4L5.545,1.147C5.642,0.69,6.257,0.603,6.476,1.016L8.56,4.94z"/>
<polygon points="9.67,7.02 10.87,9.27 5.34,14.5 "/>
<path d="M14.16,6.15l-1.79,1.7l-1.52-2.86l0.973-1.674c0.198-0.341,0.694-0.329,0.876,0.021L14.16,6.15z"/>
<path d="M21.13,18.74l-8.8,5.12C12.18,23.96,12,24,11.83,24c-0.17,0-0.35-0.04-0.5-0.13l-8.05-4.65L18.647,4.657
	c0.291-0.276,0.771-0.114,0.837,0.281L21.61,17.71C21.68,18.12,21.49,18.53,21.13,18.74z"/>
</svg>