<?xml version="1.0" encoding="iso-8859-1"?>
<!-- Generator: Adobe Illustrator 25.2.3, SVG Export Plug-In . SVG Version: 6.00 Build 0)  -->
<svg version="1.1" baseProfile="basic" id="fluent" xmlns="http://www.w3.org/2000/svg" xmlns:xlink="http://www.w3.org/1999/xlink"
	 x="0px" y="0px" viewBox="0 0 50 50" xml:space="preserve">
<line style="fill:none;stroke:#000000;stroke-width:2;stroke-miterlimit:10;" x1="39.348" y1="13.596" x2="27.65" y2="7.403"/>
<line style="fill:none;stroke:#000000;stroke-width:2;stroke-miterlimit:10;" x1="42" y1="32" x2="42" y2="18"/>
<line style="fill:none;stroke:#000000;stroke-width:2;stroke-miterlimit:10;" x1="27.651" y1="42.596" x2="39.349" y2="36.403"/>
<line style="fill:none;stroke:#000000;stroke-width:2;stroke-miterlimit:10;" x1="10.652" y1="36.404" x2="22.349" y2="42.596"/>
<line style="fill:none;stroke:#000000;stroke-width:2;stroke-miterlimit:10;" x1="8" y1="18" x2="8" y2="32"/>
<line style="fill:none;stroke:#000000;stroke-width:2;stroke-miterlimit:10;" x1="22.349" y1="7.403" x2="10.652" y2="13.596"/>
<line style="fill:none;stroke:#000000;stroke-width:2;stroke-miterlimit:10;" x1="23.483" y1="8.588" x2="9.516" y2="32.413"/>
<line style="fill:none;stroke:#000000;stroke-width:2;stroke-miterlimit:10;" x1="40.483" y1="32.412" x2="26.516" y2="8.586"/>
<line style="fill:none;stroke:#000000;stroke-width:2;stroke-miterlimit:10;" x1="11" y1="35" x2="39" y2="35"/>
<path style="fill:none;stroke:#000000;stroke-width:2;stroke-miterlimit:10;" d="M42,38c-1.659,0-3-1.341-3-3s1.341-3,3-3
	c1.659,0,3,1.341,3,3C45,36.65,43.659,38,42,38"/>
<path style="fill:none;stroke:#000000;stroke-width:2;stroke-miterlimit:10;" d="M42,18c-1.659,0-3-1.341-3-3s1.341-3,3-3
	c1.659,0,3,1.341,3,3C45,16.65,43.659,18,42,18"/>
<path style="fill:none;stroke:#000000;stroke-width:2;stroke-miterlimit:10;" d="M8,38c-1.659,0-3-1.35-3-3c0-1.659,1.341-3,3-3
	s3,1.341,3,3S9.659,38,8,38"/>
<path style="fill:none;stroke:#000000;stroke-width:2;stroke-miterlimit:10;" d="M8,18c-1.659,0-3-1.35-3-3c0-1.659,1.341-3,3-3
	s3,1.341,3,3S9.659,18,8,18"/>
<path style="fill:none;stroke:#000000;stroke-width:2;stroke-miterlimit:10;" d="M25,9c-1.659,0-3-1.341-3-3s1.341-3,3-3
	s3,1.341,3,3C28,7.65,26.659,9,25,9"/>
<path style="fill:none;stroke:#000000;stroke-width:2;stroke-miterlimit:10;" d="M25,47c-1.659,0-3-1.341-3-3s1.341-3,3-3
	s3,1.341,3,3C28,45.65,26.659,47,25,47"/>
</svg>